<mxfile host="app.diagrams.net" modified="2024-01-23T09:51:24.258Z" agent="Mozilla/5.0 (Windows NT 10.0; Win64; x64) AppleWebKit/537.36 (KHTML, like Gecko) Chrome/120.0.0.0 Safari/537.36" etag="tSWDQ5s__KqUqpb--FDm" version="22.1.21" type="github">
  <diagram name="Page-1" id="c4acf3e9-155e-7222-9cf6-157b1a14988f">
    <mxGraphModel dx="1224" dy="780" grid="1" gridSize="10" guides="1" tooltips="1" connect="1" arrows="1" fold="1" page="1" pageScale="1" pageWidth="850" pageHeight="1100" background="none" math="0" shadow="0">
      <root>
        <mxCell id="0" />
        <mxCell id="1" parent="0" />
        <mxCell id="hgBhDBC1_Aevy_yb9orK-6" value="사용자" style="shape=umlActor;verticalLabelPosition=bottom;verticalAlign=top;html=1;outlineConnect=0;" vertex="1" parent="1">
          <mxGeometry x="870" y="470" width="100" height="160" as="geometry" />
        </mxCell>
        <mxCell id="hgBhDBC1_Aevy_yb9orK-7" value="일정 작성 기능" style="ellipse;whiteSpace=wrap;html=1;" vertex="1" parent="1">
          <mxGeometry x="1080" y="180" width="120" height="80" as="geometry" />
        </mxCell>
        <mxCell id="hgBhDBC1_Aevy_yb9orK-8" value="전체 일정 조회 기능" style="ellipse;whiteSpace=wrap;html=1;" vertex="1" parent="1">
          <mxGeometry x="1080" y="400" width="120" height="80" as="geometry" />
        </mxCell>
        <mxCell id="hgBhDBC1_Aevy_yb9orK-9" value="선택 일정 조회 기능" style="ellipse;whiteSpace=wrap;html=1;" vertex="1" parent="1">
          <mxGeometry x="1080" y="290" width="120" height="80" as="geometry" />
        </mxCell>
        <mxCell id="hgBhDBC1_Aevy_yb9orK-10" value="선택 일정 삭제 기능" style="ellipse;whiteSpace=wrap;html=1;" vertex="1" parent="1">
          <mxGeometry x="1080" y="740" width="120" height="80" as="geometry" />
        </mxCell>
        <mxCell id="hgBhDBC1_Aevy_yb9orK-11" value="선택 일정 수정 기능" style="ellipse;whiteSpace=wrap;html=1;" vertex="1" parent="1">
          <mxGeometry x="1080" y="540" width="120" height="80" as="geometry" />
        </mxCell>
        <mxCell id="hgBhDBC1_Aevy_yb9orK-12" value="ID 검색" style="ellipse;whiteSpace=wrap;html=1;" vertex="1" parent="1">
          <mxGeometry x="1300" y="410" width="120" height="80" as="geometry" />
        </mxCell>
        <mxCell id="hgBhDBC1_Aevy_yb9orK-13" value="사용자 인증&lt;br&gt;비밀번호 조회" style="ellipse;whiteSpace=wrap;html=1;" vertex="1" parent="1">
          <mxGeometry x="1300" y="640" width="120" height="80" as="geometry" />
        </mxCell>
        <mxCell id="hgBhDBC1_Aevy_yb9orK-15" value="" style="endArrow=classic;html=1;rounded=0;entryX=0;entryY=0.5;entryDx=0;entryDy=0;exitX=1;exitY=0.3333333333333333;exitDx=0;exitDy=0;exitPerimeter=0;" edge="1" parent="1" source="hgBhDBC1_Aevy_yb9orK-6" target="hgBhDBC1_Aevy_yb9orK-7">
          <mxGeometry width="50" height="50" relative="1" as="geometry">
            <mxPoint x="960" y="530" as="sourcePoint" />
            <mxPoint x="1010" y="480" as="targetPoint" />
          </mxGeometry>
        </mxCell>
        <mxCell id="hgBhDBC1_Aevy_yb9orK-16" value="" style="endArrow=classic;html=1;rounded=0;entryX=-0.025;entryY=0.675;entryDx=0;entryDy=0;entryPerimeter=0;exitX=1;exitY=0.3333333333333333;exitDx=0;exitDy=0;exitPerimeter=0;" edge="1" parent="1" source="hgBhDBC1_Aevy_yb9orK-6" target="hgBhDBC1_Aevy_yb9orK-9">
          <mxGeometry width="50" height="50" relative="1" as="geometry">
            <mxPoint x="970" y="540" as="sourcePoint" />
            <mxPoint x="1090" y="230" as="targetPoint" />
          </mxGeometry>
        </mxCell>
        <mxCell id="hgBhDBC1_Aevy_yb9orK-17" value="" style="endArrow=classic;html=1;rounded=0;entryX=0;entryY=0.5;entryDx=0;entryDy=0;exitX=1;exitY=0.3333333333333333;exitDx=0;exitDy=0;exitPerimeter=0;" edge="1" parent="1" source="hgBhDBC1_Aevy_yb9orK-6" target="hgBhDBC1_Aevy_yb9orK-8">
          <mxGeometry width="50" height="50" relative="1" as="geometry">
            <mxPoint x="980" y="520" as="sourcePoint" />
            <mxPoint x="1087" y="354" as="targetPoint" />
          </mxGeometry>
        </mxCell>
        <mxCell id="hgBhDBC1_Aevy_yb9orK-18" value="" style="endArrow=classic;html=1;rounded=0;entryX=0;entryY=0.5;entryDx=0;entryDy=0;" edge="1" parent="1" target="hgBhDBC1_Aevy_yb9orK-11">
          <mxGeometry width="50" height="50" relative="1" as="geometry">
            <mxPoint x="970" y="520" as="sourcePoint" />
            <mxPoint x="1097" y="364" as="targetPoint" />
          </mxGeometry>
        </mxCell>
        <mxCell id="hgBhDBC1_Aevy_yb9orK-19" value="" style="endArrow=classic;html=1;rounded=0;entryX=0;entryY=0.5;entryDx=0;entryDy=0;exitX=1;exitY=0.3333333333333333;exitDx=0;exitDy=0;exitPerimeter=0;" edge="1" parent="1" source="hgBhDBC1_Aevy_yb9orK-6" target="hgBhDBC1_Aevy_yb9orK-10">
          <mxGeometry width="50" height="50" relative="1" as="geometry">
            <mxPoint x="1000" y="553" as="sourcePoint" />
            <mxPoint x="1107" y="374" as="targetPoint" />
          </mxGeometry>
        </mxCell>
        <mxCell id="hgBhDBC1_Aevy_yb9orK-20" value="" style="endArrow=none;dashed=1;html=1;dashPattern=1 3;strokeWidth=2;rounded=0;entryX=0.008;entryY=0.638;entryDx=0;entryDy=0;entryPerimeter=0;" edge="1" parent="1" target="hgBhDBC1_Aevy_yb9orK-13">
          <mxGeometry width="50" height="50" relative="1" as="geometry">
            <mxPoint x="1200" y="770" as="sourcePoint" />
            <mxPoint x="1250" y="720" as="targetPoint" />
          </mxGeometry>
        </mxCell>
        <mxCell id="hgBhDBC1_Aevy_yb9orK-21" value="" style="endArrow=none;dashed=1;html=1;dashPattern=1 3;strokeWidth=2;rounded=0;entryX=0.008;entryY=0.638;entryDx=0;entryDy=0;entryPerimeter=0;exitX=1;exitY=0.5;exitDx=0;exitDy=0;" edge="1" parent="1" source="hgBhDBC1_Aevy_yb9orK-11">
          <mxGeometry width="50" height="50" relative="1" as="geometry">
            <mxPoint x="1210" y="780" as="sourcePoint" />
            <mxPoint x="1311" y="701" as="targetPoint" />
          </mxGeometry>
        </mxCell>
        <mxCell id="hgBhDBC1_Aevy_yb9orK-22" value="" style="endArrow=none;dashed=1;html=1;dashPattern=1 3;strokeWidth=2;rounded=0;entryX=0;entryY=0.5;entryDx=0;entryDy=0;exitX=1;exitY=0.388;exitDx=0;exitDy=0;exitPerimeter=0;" edge="1" parent="1" source="hgBhDBC1_Aevy_yb9orK-10" target="hgBhDBC1_Aevy_yb9orK-12">
          <mxGeometry width="50" height="50" relative="1" as="geometry">
            <mxPoint x="1160" y="740" as="sourcePoint" />
            <mxPoint x="1261" y="661" as="targetPoint" />
          </mxGeometry>
        </mxCell>
        <mxCell id="hgBhDBC1_Aevy_yb9orK-23" value="" style="endArrow=none;dashed=1;html=1;dashPattern=1 3;strokeWidth=2;rounded=0;exitX=1;exitY=0.5;exitDx=0;exitDy=0;" edge="1" parent="1" source="hgBhDBC1_Aevy_yb9orK-9">
          <mxGeometry width="50" height="50" relative="1" as="geometry">
            <mxPoint x="1210" y="781" as="sourcePoint" />
            <mxPoint x="1300" y="460" as="targetPoint" />
          </mxGeometry>
        </mxCell>
        <mxCell id="hgBhDBC1_Aevy_yb9orK-24" value="" style="endArrow=none;dashed=1;html=1;dashPattern=1 3;strokeWidth=2;rounded=0;exitX=1;exitY=0.5;exitDx=0;exitDy=0;" edge="1" parent="1" source="hgBhDBC1_Aevy_yb9orK-11">
          <mxGeometry width="50" height="50" relative="1" as="geometry">
            <mxPoint x="1220" y="791" as="sourcePoint" />
            <mxPoint x="1300" y="460" as="targetPoint" />
          </mxGeometry>
        </mxCell>
        <mxCell id="hgBhDBC1_Aevy_yb9orK-25" value="상태 코드&lt;br&gt;출력" style="ellipse;whiteSpace=wrap;html=1;" vertex="1" parent="1">
          <mxGeometry x="1480" y="540" width="120" height="80" as="geometry" />
        </mxCell>
        <mxCell id="hgBhDBC1_Aevy_yb9orK-26" value="" style="endArrow=none;dashed=1;html=1;dashPattern=1 3;strokeWidth=2;rounded=0;exitX=1.008;exitY=0.4;exitDx=0;exitDy=0;exitPerimeter=0;entryX=0;entryY=0.5;entryDx=0;entryDy=0;" edge="1" parent="1" source="hgBhDBC1_Aevy_yb9orK-13" target="hgBhDBC1_Aevy_yb9orK-25">
          <mxGeometry width="50" height="50" relative="1" as="geometry">
            <mxPoint x="860" y="520" as="sourcePoint" />
            <mxPoint x="910" y="470" as="targetPoint" />
          </mxGeometry>
        </mxCell>
      </root>
    </mxGraphModel>
  </diagram>
</mxfile>
